<?xml version="1.0" encoding="utf-8"?>
<!-- Generator: Adobe Illustrator 15.1.0, SVG Export Plug-In . SVG Version: 6.00 Build 0)  -->
<!DOCTYPE svg PUBLIC "-//W3C//DTD SVG 1.1//EN" "http://www.w3.org/Graphics/SVG/1.1/DTD/svg11.dtd">
<svg version="1.1" id="Calque_1" xmlns="http://www.w3.org/2000/svg" xmlns:xlink="http://www.w3.org/1999/xlink" x="0px" y="0px"
	 width="128px" height="128px" viewBox="-51.5 -51.5 128 128" enable-background="new -51.5 -51.5 128 128" xml:space="preserve">
<g id="Calque_2">
	<circle fill="#68A4C4" cx="12.5" cy="12.5" r="64"/>
</g>
<g id="Calque_1_1_">
	<path fill="#777777" d="M20.181-8.147h-7.73c-1.573,0-3.099,0.333-4.583,0.998c-1.483,0.668-2.671,1.528-3.56,2.587L-0.3-18.387
		h-14.695l-12.234,35.84h8.652l3.788-10.24H-0.3v20.48h-25.599c-2.802,0-5.208-1.01-7.221-3.02c-2.012-2.011-3.02-4.421-3.02-7.221
		v-35.84c0-2.8,1.007-5.207,3.02-7.219c2.012-2.01,4.419-3.021,7.221-3.021H9.94c2.8,0,5.211,1.01,7.221,3.021
		c2.01,2.012,3.02,4.419,3.02,7.219V-8.147z M-2.81,2.093h-10.339l5.12-15.002L-2.81,2.093z M15.06-3.027H50.9
		c2.8,0,5.21,1.011,7.22,3.021c2.01,2.012,3.02,4.419,3.02,7.219v35.84c0,2.8-1.01,5.211-3.02,7.221s-4.42,3.02-7.22,3.02H15.06
		c-2.799,0-5.207-1.01-7.22-3.02c-2.012-2.01-3.02-4.421-3.02-7.221V7.213c0-2.8,1.007-5.207,3.02-7.219
		C9.853-2.016,12.26-3.027,15.06-3.027z M52.181,22.573v-5.53H35.95V5.933h-5.939v11.11H13.782v5.53h6.549
		c0.309,2.25,1.029,4.579,2.153,6.96c1.126,2.39,2.596,4.54,4.407,6.454c-2.196,0.885-4.432,1.635-6.735,2.256
		c-2.306,0.61-4.007,0.92-5.097,0.92l0.256,1.33c0.176,0.89,0.351,1.945,0.535,3.175c0.191,1.226,0.27,2.215,0.234,2.97
		c2.115,0,4.746-0.555,7.885-1.665c3.141-1.109,6.111-2.52,8.912-4.225c2.828,1.705,5.85,3.115,9.059,4.225
		c3.211,1.11,5.891,1.665,8.041,1.665c-0.041-0.484-0.021-1.05,0.049-1.715c0.07-0.67,0.149-1.329,0.255-1.97
		c0.106-0.65,0.206-1.26,0.305-1.82c0.11-0.56,0.212-1.03,0.315-1.41l0.105-0.555c-1.131,0-2.886-0.325-5.271-0.955
		c-2.389-0.63-4.694-1.385-6.908-2.279c1.738-1.91,3.153-4.061,4.27-6.45c1.109-2.39,1.814-4.69,2.131-6.91H52.181z M32.671,32.453
		c-2.59-2.39-4.32-5.681-5.17-9.88H38.2c-0.889,4.229-2.59,7.525-5.119,9.88l-0.199,0.154C32.775,32.543,32.71,32.493,32.671,32.453
		z"/>
</g>
</svg>
